<?xml version="1.0" standalone="no"?>
<!DOCTYPE svg PUBLIC "-//W3C//DTD SVG 20010904//EN"
 "http://www.w3.org/TR/2001/REC-SVG-20010904/DTD/svg10.dtd">
<svg version="1.0" xmlns="http://www.w3.org/2000/svg"
 width="2136.000000pt" height="2523.000000pt" viewBox="0 0 2136.000000 2523.000000"
 preserveAspectRatio="xMidYMid meet">
<metadata>
Created by potrace 1.16, written by Peter Selinger 2001-2019
</metadata>
<g transform="translate(0.000000,2523.000000) scale(0.100000,-0.100000)"
fill="#000000" stroke="none">
<path d="M5173 24103 c-7 -2 -13 -13 -13 -23 0 -26 -43 -70 -68 -70 -12 0 -36
-13 -54 -29 -19 -16 -56 -34 -85 -41 -29 -6 -53 -16 -53 -21 0 -5 -3 -8 -7 -7
-14 3 -53 -13 -49 -20 2 -4 -30 -6 -71 -5 -68 1 -76 3 -87 25 -11 22 -17 23
-124 24 -108 1 -114 2 -141 28 -25 24 -34 26 -109 26 -70 0 -84 -3 -101 -21
-13 -14 -26 -19 -39 -15 -11 4 -24 0 -32 -9 -11 -14 -14 -13 -27 5 -20 29 -38
25 -62 -13 -41 -66 -64 -76 -141 -63 -14 3 -51 9 -83 14 -32 5 -67 17 -80 28
-31 27 -69 46 -103 49 -16 1 -37 6 -46 10 -9 4 -22 3 -29 -1 -8 -5 -9 -3 -4 6
6 10 4 12 -7 7 -9 -3 -24 3 -34 14 -9 10 -23 19 -29 19 -7 0 -18 7 -25 15 -19
23 -76 19 -94 -6 -16 -23 -43 -27 -93 -15 -26 6 -33 4 -33 -8 0 -8 -10 -24
-22 -36 -17 -15 -30 -19 -56 -14 -27 5 -36 2 -48 -15 -8 -11 -26 -21 -38 -21
-29 0 -56 -38 -56 -78 0 -16 -9 -41 -20 -55 -11 -14 -21 -38 -23 -54 -5 -44
-23 -68 -65 -87 -21 -10 -47 -31 -56 -48 -10 -16 -41 -53 -70 -82 -94 -97
-152 -161 -175 -197 -13 -19 -37 -41 -54 -49 -26 -11 -29 -16 -24 -45 5 -29 0
-38 -34 -68 -21 -20 -39 -42 -39 -51 0 -8 -9 -20 -20 -26 -30 -16 -26 -44 5
-38 27 6 34 -6 10 -16 -8 -3 -15 -12 -15 -20 0 -19 30 -29 47 -15 8 7 30 12
49 11 25 -1 42 5 60 23 41 41 61 48 67 24 3 -11 14 -23 24 -25 15 -4 18 -12
15 -40 -3 -24 1 -41 13 -54 26 -28 16 -115 -35 -320 -6 -24 -16 -48 -22 -51
-6 -4 -14 -40 -18 -81 -3 -43 -15 -93 -29 -122 -16 -34 -24 -71 -25 -120 -2
-45 -11 -89 -24 -121 -12 -27 -28 -88 -36 -135 -8 -47 -17 -96 -21 -110 -15
-52 -17 -78 -6 -84 17 -11 13 -97 -7 -157 -10 -30 -19 -88 -21 -129 -1 -43 -8
-84 -16 -96 -7 -11 -15 -45 -16 -74 -2 -42 1 -55 16 -67 19 -13 19 -15 3 -41
-45 -71 -52 -91 -40 -114 29 -57 52 -199 44 -277 l-5 -54 30 6 30 6 7 -72 c4
-40 7 -88 6 -107 0 -19 9 -56 21 -82 21 -45 21 -47 4 -102 -12 -38 -16 -72
-12 -106 4 -31 1 -68 -8 -97 -20 -65 -19 -90 4 -103 17 -8 18 -15 10 -45 -11
-38 2 -94 29 -127 8 -10 9 -18 4 -22 -11 -6 -5 -44 9 -62 5 -5 6 -22 3 -37 -2
-15 3 -41 11 -57 9 -17 13 -35 10 -40 -3 -5 -1 -12 5 -15 6 -4 9 -1 8 6 -2 6
3 14 11 16 11 4 12 -9 9 -71 -2 -42 0 -76 4 -76 5 0 6 -4 3 -10 -3 -5 -1 -10
4 -10 6 0 11 -8 11 -17 0 -15 -2 -16 -10 -3 -7 11 -10 11 -10 2 0 -8 -5 -10
-12 -6 -9 5 -9 2 1 -9 13 -17 7 -22 -21 -18 -4 0 -26 -8 -50 -19 -24 -11 -33
-18 -22 -15 12 3 44 6 70 6 27 1 54 6 61 11 19 15 67 5 78 -17 6 -11 25 -36
43 -55 56 -61 72 -80 72 -90 0 -4 6 -11 13 -13 8 -4 9 -8 1 -14 -15 -12 -25
-43 -14 -43 6 0 10 -10 10 -22 l0 -22 -16 22 c-8 12 -19 22 -23 22 -9 0 -137
84 -162 106 -20 18 -105 44 -146 44 -26 0 -34 5 -39 25 -5 19 -9 23 -19 15 -7
-6 -10 -20 -7 -32 4 -17 2 -20 -11 -15 -9 3 -21 -1 -29 -11 -9 -11 -10 -14 0
-8 15 9 15 1 2 -25 -6 -10 -17 -19 -24 -19 -14 0 -37 -75 -40 -132 -1 -20 -6
-41 -10 -45 -5 -5 -6 -1 -1 7 5 10 5 12 -2 5 -21 -20 -31 -132 -28 -290 5
-198 4 -193 15 -200 5 -3 7 -12 3 -20 -3 -8 1 -15 8 -15 7 0 10 -3 6 -6 -3 -4
0 -19 8 -34 8 -15 12 -30 9 -33 -3 -3 -2 -12 2 -19 9 -14 11 -19 13 -42 0 -8
7 -21 14 -28 7 -7 15 -17 17 -23 15 -47 23 -65 32 -65 5 0 6 -4 3 -10 -3 -5 0
-22 8 -37 8 -15 20 -50 26 -78 7 -27 16 -57 19 -65 3 -8 7 -22 8 -30 2 -8 8
-35 14 -60 7 -25 13 -50 14 -56 1 -7 8 -19 14 -27 7 -9 14 -25 15 -36 1 -12 5
-21 10 -21 4 0 6 -4 3 -9 -4 -5 -2 -11 3 -13 5 -1 11 -9 13 -17 2 -8 10 -22
18 -32 8 -10 26 -32 40 -50 37 -48 59 -69 71 -69 5 0 7 -4 4 -10 -3 -5 1 -10
9 -10 9 0 16 -4 16 -8 0 -5 18 -16 39 -25 22 -10 46 -29 55 -42 9 -14 23 -25
31 -25 8 0 18 -6 22 -12 13 -21 128 -77 193 -93 3 -1 12 -4 20 -8 16 -6 117
-23 185 -31 22 -3 41 -5 42 -6 1 0 5 -15 9 -32 3 -18 14 -44 23 -57 9 -14 15
-28 14 -31 -1 -3 3 -23 9 -45 6 -22 10 -46 9 -53 -1 -8 5 -23 15 -33 9 -10 14
-19 9 -19 -4 0 -2 -6 4 -14 6 -8 11 -18 10 -22 -1 -5 -1 -11 1 -14 1 -3 3 -16
6 -29 2 -14 8 -29 13 -35 11 -13 41 -93 44 -116 1 -8 9 -26 17 -40 8 -14 15
-34 17 -44 2 -11 8 -25 14 -33 6 -7 8 -13 5 -13 -4 0 0 -7 9 -16 13 -14 14
-19 3 -25 -10 -7 -10 -9 0 -9 6 0 12 -7 12 -15 0 -8 5 -15 11 -15 5 0 7 -5 4
-10 -4 -6 -1 -18 7 -27 11 -14 11 -16 -1 -9 -9 6 -8 0 4 -17 9 -15 14 -31 10
-37 -3 -5 -1 -10 4 -10 6 0 11 -9 11 -21 0 -13 4 -18 12 -13 7 5 9 0 6 -14 -3
-12 -2 -22 3 -24 5 -2 10 -18 12 -36 1 -17 6 -32 11 -32 5 0 6 -3 3 -7 -4 -3
0 -14 8 -23 9 -10 15 -21 14 -26 -2 -5 7 -29 19 -54 11 -25 22 -54 24 -65 2
-11 5 -22 8 -25 24 -21 68 -141 183 -495 31 -97 75 -264 91 -350 6 -35 -11
-60 -67 -98 -20 -14 -63 -56 -95 -95 -32 -38 -75 -84 -97 -103 -21 -19 -45
-50 -53 -69 -8 -19 -28 -54 -44 -76 -34 -47 -37 -82 -18 -199 6 -38 12 -89 15
-113 2 -23 7 -46 10 -51 3 -6 1 -28 -3 -49 -8 -33 -6 -42 9 -56 11 -9 19 -23
19 -31 0 -17 11 -20 25 -6 6 5 20 12 32 15 22 7 22 7 7 -31 -8 -21 -20 -48
-26 -60 -23 -46 1 -38 45 15 l27 34 0 -33 c0 -18 -12 -118 -26 -223 -22 -164
-25 -216 -22 -368 l5 -178 42 -57 c23 -32 52 -74 66 -93 26 -39 86 -124 157
-223 26 -37 81 -131 123 -209 43 -79 83 -150 91 -157 12 -13 19 -12 56 9 24
13 66 44 94 69 28 25 80 66 115 91 35 25 111 84 169 132 58 48 146 115 195
150 72 50 94 72 112 109 14 29 37 56 65 75 24 16 71 49 105 74 182 133 250
177 407 261 61 33 120 67 131 77 30 26 69 81 99 140 15 29 67 109 116 178 50
69 95 135 102 147 6 12 41 65 78 117 37 52 88 136 113 186 42 83 58 102 189
230 79 76 161 165 181 196 35 53 57 78 57 63 0 -4 -14 -40 -31 -81 -17 -41
-29 -77 -26 -80 7 -8 77 81 77 98 0 8 26 40 59 70 43 41 68 57 94 60 36 4 36
4 34 -34 -2 -21 1 -38 4 -38 4 0 15 -3 25 -7 13 -5 15 -3 9 7 -6 10 -2 11 17
7 19 -5 31 1 57 27 21 21 29 36 22 40 -6 4 -17 4 -23 1 -7 -4 1 5 17 19 17 14
35 26 41 26 6 0 21 11 33 24 13 14 33 26 45 28 11 2 25 13 31 26 5 12 17 22
25 22 17 0 50 34 50 50 0 6 5 10 10 10 6 0 10 10 10 23 1 21 1 21 14 4 13 -17
16 -16 47 22 17 22 40 43 50 46 9 3 28 17 42 30 21 22 26 23 37 10 18 -21 40
-19 40 5 0 11 6 20 13 20 6 0 21 15 31 33 l20 32 7 -30 c3 -16 7 -23 8 -14 0
9 8 19 16 23 8 3 15 12 15 21 0 20 17 19 28 -2 8 -13 11 -10 17 18 18 91 26
109 45 109 13 0 22 9 26 26 4 17 9 22 14 14 10 -16 50 9 50 31 0 9 7 22 15 29
8 7 15 20 15 30 0 37 22 80 41 80 20 0 26 24 9 35 -7 4 -7 12 0 25 5 10 7 26
4 34 -3 9 -1 16 5 16 6 0 11 -4 11 -10 0 -21 16 -8 44 36 22 36 31 42 42 33
11 -9 16 -6 24 17 6 15 18 33 28 40 9 7 14 15 10 19 -9 9 25 87 61 140 16 24
32 57 36 74 7 32 20 41 28 19 7 -22 36 10 43 48 3 19 9 34 13 34 9 0 41 65 41
83 0 7 11 21 23 32 16 13 22 27 19 42 -3 18 0 23 15 23 26 0 57 68 55 122 0
10 5 15 12 12 15 -6 54 80 50 109 -1 9 2 17 6 17 5 0 6 22 3 49 -3 31 -1 51 6
55 7 5 11 -2 11 -18 0 -33 15 -33 36 0 14 21 15 33 7 72 -10 44 -10 45 4 25
17 -25 42 -31 44 -10 4 34 -2 61 -17 78 -16 18 -16 19 -1 19 10 0 17 -5 17
-12 0 -18 18 4 22 27 1 11 8 26 15 33 15 16 10 102 -7 112 -8 5 -10 18 -6 35
6 22 9 25 22 14 11 -9 18 -9 27 0 8 8 7 18 -5 39 -8 15 -14 45 -13 67 1 22 -3
49 -10 60 -13 22 -8 88 6 79 5 -3 6 2 3 10 -3 9 -10 16 -14 16 -4 0 -10 11
-12 25 -3 13 -1 22 3 19 5 -2 8 25 8 61 -1 43 -4 63 -11 59 -7 -4 -8 -2 -4 5
13 20 18 63 7 56 -21 -12 -27 83 -6 97 6 5 6 8 -2 8 -7 0 -10 7 -7 15 4 8 10
12 15 9 5 -3 9 2 9 10 0 9 -4 16 -9 16 -4 0 -7 27 -6 60 1 39 -2 60 -9 60 -6
0 -4 5 4 10 13 9 13 11 0 20 -10 6 -11 10 -2 10 6 0 12 5 12 11 0 5 -4 8 -8 5
-4 -2 -9 11 -10 30 -4 61 -6 74 -14 74 -4 0 -8 12 -8 28 0 15 -7 54 -16 87 -9
33 -17 72 -19 88 -1 15 -3 32 -4 37 0 6 -6 10 -12 10 -6 0 -9 -7 -5 -15 24
-62 44 -396 28 -472 -5 -28 -22 -30 -22 -3 0 10 -9 24 -21 30 -11 7 -18 17
-15 25 6 17 -35 55 -60 54 -10 0 -13 -3 -6 -6 22 -9 12 -25 -13 -21 -14 3 -28
1 -31 -3 -9 -16 -24 -10 -24 10 0 16 -18 31 -36 31 -2 0 -4 -17 -5 -37 -2 -61
-11 -78 -42 -78 -18 -1 -26 4 -23 11 3 8 -7 14 -27 16 -24 2 -33 8 -35 25 -2
12 -12 25 -23 28 -10 4 -19 15 -19 25 0 18 -31 43 -55 45 -25 3 -45 19 -45 36
0 10 -4 19 -10 19 -5 0 -10 -4 -10 -10 0 -5 -7 -10 -15 -10 -8 0 -15 4 -15 10
0 13 -70 43 -97 41 -13 0 -23 4 -23 9 0 6 6 10 13 10 8 0 7 4 -3 10 -20 13
-33 13 -25 0 9 -14 -11 -12 -27 3 -7 6 -49 37 -93 67 -96 65 -134 98 -146 125
-7 15 -8 13 -3 -10 12 -65 33 -89 115 -140 115 -69 178 -161 179 -257 0 -48
-16 -75 -22 -37 -2 14 -20 32 -50 48 -25 14 -71 45 -100 68 -48 38 -64 44
-134 54 -43 6 -94 11 -111 12 -18 1 -33 7 -33 14 0 17 -22 21 -48 10 -16 -7
-26 -8 -30 -1 -4 6 -15 13 -24 17 -10 3 -18 14 -18 23 0 33 -30 6 -44 -40 -5
-16 -13 -18 -50 -13 -29 4 -49 2 -64 -9 -13 -9 -23 -11 -27 -4 -4 6 -13 7 -24
1 -10 -6 -23 -6 -32 0 -19 12 -76 11 -84 -1 -3 -5 -15 -10 -26 -10 -11 0 -19
-7 -19 -16 0 -30 -50 -66 -83 -61 -17 2 -51 -2 -76 -10 -25 -8 -67 -14 -94
-14 -26 1 -60 -5 -75 -13 -16 -8 -46 -16 -68 -18 -37 -3 -39 -2 -42 30 -2 23
1 32 11 32 8 0 24 15 35 34 13 23 31 36 51 41 17 4 37 15 44 25 16 23 61 42
81 34 8 -3 17 -1 21 5 12 21 35 12 35 -14 0 -18 4 -23 15 -19 8 4 15 12 15 19
0 9 12 13 33 13 17 0 49 4 69 10 26 7 38 6 41 -1 6 -20 27 4 27 31 0 18 11 37
31 55 18 15 28 31 25 35 -4 4 -16 -3 -26 -15 -21 -26 -32 -30 -24 -9 10 26
-13 54 -41 49 -28 -6 -33 8 -11 27 8 6 16 24 18 38 2 19 10 28 26 30 30 4 28
20 -3 28 -29 7 -34 24 -6 24 10 0 21 7 25 15 7 18 33 20 39 3 3 -9 7 -7 12 5
11 26 -1 44 -34 52 -17 4 -31 11 -31 16 0 5 -7 9 -15 9 -8 0 -15 -6 -15 -12 0
-7 -14 2 -31 20 -16 17 -35 32 -41 32 -5 0 -8 7 -4 15 3 8 3 28 0 44 -5 23
-10 28 -26 23 -15 -3 -19 -1 -16 9 7 22 36 22 43 0 3 -12 13 -21 21 -21 8 0
14 -4 14 -10 0 -5 6 -10 14 -10 11 0 13 9 9 38 -7 46 -7 46 -32 32 -12 -6 -21
-7 -21 -1 0 5 -7 17 -16 26 -9 9 -13 19 -9 23 3 4 11 -1 16 -11 11 -19 49 -23
49 -5 0 6 -7 20 -17 30 -9 10 -13 21 -8 26 4 4 10 1 12 -5 8 -22 61 -16 68 7
3 11 11 20 16 20 14 0 11 36 -6 50 -16 14 -35 6 -35 -16 0 -23 -20 -16 -51 17
-23 25 -27 34 -18 45 9 11 15 11 25 3 20 -16 37 0 31 30 -4 20 0 31 14 41 22
16 25 36 7 43 -29 11 26 19 56 9 17 -6 44 -8 59 -5 52 10 115 -36 124 -91 3
-19 23 -56 45 -82 22 -27 47 -66 56 -86 9 -21 20 -38 24 -38 5 0 8 -7 8 -15 0
-9 9 -35 20 -57 11 -23 20 -48 20 -56 0 -10 9 -13 30 -10 17 3 30 1 30 -4 0
-4 -4 -8 -10 -8 -5 0 -10 -5 -10 -10 0 -6 8 -10 18 -8 9 2 16 -3 15 -9 -7 -33
65 13 80 50 7 19 32 23 42 6 4 -5 -1 -19 -10 -29 -15 -16 -16 -22 -5 -35 14
-17 25 -12 25 13 0 9 6 16 14 14 7 -1 19 2 26 8 9 8 24 6 51 -4 22 -9 55 -17
74 -18 19 -2 41 -9 48 -15 7 -7 33 -13 58 -13 24 0 64 -5 88 -12 47 -12 56 -8
82 37 8 15 20 19 43 17 36 -4 38 5 12 52 -21 37 -19 46 12 46 11 0 37 5 58 12
31 9 39 16 39 35 0 14 6 23 15 23 18 0 20 26 4 36 -8 5 -6 10 5 16 9 5 16 20
16 34 0 14 7 27 18 31 9 4 21 12 25 20 4 7 16 13 27 13 10 0 22 9 25 20 3 11
15 20 26 20 10 0 22 1 26 3 11 4 47 -138 59 -233 3 -25 11 -63 19 -85 7 -22
18 -65 25 -95 7 -30 16 -64 20 -75 18 -43 9 41 -16 160 -14 66 -27 134 -28
150 -2 17 -7 38 -11 47 -4 9 -3 22 1 29 5 8 3 9 -6 4 -9 -6 -11 -4 -5 5 4 7 9
85 10 174 4 219 3 209 19 203 8 -3 19 0 25 7 11 13 9 85 -3 105 -4 6 -2 11 3
11 6 0 11 -4 11 -10 0 -5 6 -10 14 -10 18 0 29 31 20 54 -4 12 0 16 16 16 19
0 21 4 17 36 -3 20 -9 40 -15 46 -6 6 -6 20 1 39 9 22 9 34 -1 49 -6 11 -16
40 -22 65 -6 26 -22 58 -36 72 -25 25 -26 46 -1 25 8 -7 18 -7 27 -2 11 7 12
10 2 10 -7 0 -10 5 -7 10 3 6 1 10 -4 10 -6 0 -11 7 -11 15 0 7 -6 18 -14 22
-8 4 -15 13 -16 18 -4 18 -27 45 -33 38 -4 -3 1 -12 11 -20 15 -13 15 -13 -5
-3 -13 6 -23 18 -24 28 0 10 -3 12 -6 5 -13 -33 -20 -5 -21 80 0 86 -2 109
-18 197 -7 34 -6 35 13 18 12 -11 18 -29 17 -48 -1 -16 2 -28 6 -25 4 3 6 14
3 25 -3 11 0 20 6 20 6 0 11 6 11 13 0 8 46 59 102 115 l103 102 -2 83 c-1 62
1 76 9 57 9 -24 10 -24 24 -6 16 23 17 50 4 130 -5 35 -16 64 -25 68 -8 5 -15
19 -15 30 0 12 3 18 7 15 10 -11 33 14 33 35 0 11 -9 22 -20 25 -17 5 -20 13
-19 62 1 53 2 55 11 24 6 -18 18 -33 26 -33 14 0 14 4 -2 98 -1 8 -7 17 -13
20 -5 4 -16 31 -23 60 -7 29 -19 59 -27 67 -10 11 -11 20 -4 33 7 13 5 34 -5
70 -15 49 -37 68 -47 40 -2 -7 -9 5 -15 27 -8 25 -8 41 -2 43 9 3 8 32 -5 243
-5 78 -18 127 -43 167 -9 14 -13 35 -9 56 3 19 0 45 -8 59 -7 14 -10 28 -7 32
4 3 0 10 -8 16 -13 8 -13 10 0 19 8 5 11 10 5 10 -5 0 -3 5 5 10 8 5 15 14 15
20 0 6 5 14 10 18 12 9 14 82 2 82 -4 0 -5 5 -2 10 3 6 2 10 -4 10 -6 0 -1 17
11 37 16 26 18 38 10 41 -26 8 -9 20 39 25 55 7 119 27 119 38 0 13 -25 55
-55 91 -30 35 -108 77 -152 80 -13 2 -23 6 -23 11 0 4 -4 5 -10 2 -5 -3 -10
-1 -10 5 0 6 -4 9 -9 5 -5 -3 -16 1 -24 9 -8 8 -17 12 -21 9 -3 -4 -6 -1 -6 6
0 7 -6 11 -14 8 -16 -6 -40 16 -29 26 3 4 1 7 -6 7 -7 0 -10 4 -7 9 3 5 0 11
-8 14 -9 3 -12 15 -9 31 3 15 1 26 -6 26 -6 0 -11 7 -11 15 0 8 -13 24 -30 37
-16 12 -30 28 -30 35 0 7 -5 13 -11 13 -7 0 -9 10 -7 25 6 31 -14 49 -53 48
-16 -1 -30 -2 -31 -3 -2 -1 -18 -3 -36 -6 -21 -2 -31 0 -27 6 3 6 -1 10 -9 10
-8 0 -18 -4 -21 -10 -9 -14 -52 -12 -58 3 -4 8 -8 8 -14 2 -10 -12 -45 -16
-37 -4 3 5 0 9 -5 9 -6 0 -29 16 -51 36 -22 20 -40 33 -40 28 0 -4 -5 -3 -12
4 -7 7 -21 12 -32 12 -18 0 -19 2 -6 11 12 9 12 10 -3 5 -10 -3 -21 -6 -23 -6
-3 0 -2 -4 1 -10 4 -6 -6 -10 -24 -10 -16 0 -32 4 -35 9 -4 5 4 7 16 4 13 -2
3 5 -21 16 -24 12 -52 19 -62 16 -12 -4 -22 1 -29 15 -6 11 -20 20 -31 20 -11
0 -17 -4 -14 -10 14 -23 -9 -7 -47 33 -23 23 -35 33 -27 22 8 -11 -10 4 -39
33 -30 28 -60 52 -68 52 -7 0 -19 9 -26 20 -7 11 -18 20 -24 20 -6 0 -29 13
-52 30 -22 16 -54 32 -69 36 -15 4 -30 10 -33 13 -9 11 -113 40 -175 50 -70
10 -174 38 -189 50 -20 16 -136 51 -169 51 -17 0 -41 7 -51 15 -11 8 -37 15
-59 15 -23 0 -56 10 -83 26 l-44 26 -10 -26 c-9 -24 -12 -25 -37 -14 -15 7
-35 18 -44 25 -9 8 -40 18 -69 22 -35 6 -59 16 -69 29 -13 17 -27 21 -77 21
-37 0 -80 8 -113 20 -64 26 -182 29 -201 6 -7 -8 -21 -15 -31 -15 -11 0 -16
-5 -13 -13 7 -18 -138 -61 -169 -50 -18 6 -14 9 23 13 31 3 45 10 45 20 0 12
-19 15 -110 16 -60 0 -114 -3 -120 -6 -14 -10 -45 -8 -39 2 3 4 -6 12 -20 18
-23 8 -24 12 -19 64 5 44 3 57 -10 61 -13 6 -13 10 0 35 28 57 8 111 -34 93z
m3035 -3400 c8 -16 17 -68 38 -233 3 -25 7 -73 8 -106 2 -34 7 -67 10 -73 17
-27 -7 -31 -39 -7 -19 15 -40 26 -47 26 -8 0 -31 9 -52 19 -21 11 -51 23 -67
26 -16 4 -29 11 -29 17 0 6 -6 6 -15 -2 -8 -7 -25 -10 -39 -6 -14 3 -27 2 -30
-2 -5 -8 -21 -8 -131 2 -29 2 -69 15 -95 30 -25 14 -53 26 -63 26 -9 0 -16 6
-15 13 2 6 -6 12 -17 12 -13 0 -19 -6 -17 -15 2 -8 0 -12 -4 -8 -4 4 -13 3
-19 -2 -23 -19 -47 0 -40 30 3 16 2 31 -4 34 -14 9 -39 -4 -44 -22 -4 -13 -5
-12 -6 4 0 11 -6 25 -11 30 -8 8 -7 19 1 37 13 30 29 36 29 12 0 -12 7 -9 25
10 32 31 75 34 75 6 0 -11 4 -22 9 -25 13 -8 34 21 27 39 -3 8 -2 15 2 15 15
0 62 -25 62 -32 0 -5 7 -8 16 -8 11 0 15 6 11 19 -3 12 1 22 10 25 25 10 33 7
42 -18 8 -19 19 -25 59 -30 27 -3 61 -2 75 3 16 6 28 6 35 -1 6 -6 22 -10 35
-10 19 0 23 -5 20 -19 -4 -13 0 -19 11 -19 10 0 14 5 11 10 -10 16 12 12 29
-6 15 -14 16 -13 16 10 0 14 -4 28 -10 31 -32 20 9 82 46 68 10 -4 25 4 40 21
15 16 20 26 12 27 -10 0 -10 2 -1 6 9 3 10 10 3 23 -7 13 -6 20 3 23 21 9 26
8 35 -10z m-3831 -1625 l32 -13 -25 -26 c-26 -28 -17 -52 11 -29 10 8 15 8 22
-4 4 -8 22 -17 38 -21 23 -5 26 -4 15 4 -8 6 -12 11 -7 11 17 0 23 3 50 22 15
11 27 25 27 33 0 25 28 25 34 -1 4 -13 12 -24 20 -24 7 0 19 -7 26 -15 7 -8
16 -12 21 -10 4 3 12 -2 17 -12 9 -15 15 -15 52 -4 23 7 44 10 47 8 2 -3 -5
-8 -16 -12 -12 -3 -21 -13 -21 -21 0 -19 50 -8 67 15 9 11 12 12 13 3 0 -14
107 -15 116 0 10 16 34 8 34 -11 0 -24 16 -36 23 -19 4 9 8 10 14 2 18 -24 46
-32 61 -18 7 8 27 14 43 14 22 0 29 -5 29 -20 0 -16 6 -19 35 -18 40 1 56 -9
35 -22 -15 -9 -13 -11 13 -14 6 -1 11 -12 10 -24 -2 -12 2 -22 7 -22 6 0 10 9
10 20 0 11 5 20 10 20 6 0 10 -7 10 -14 0 -24 48 -69 65 -62 18 6 20 36 3 36
-6 0 -8 3 -5 6 4 4 12 2 19 -4 7 -5 28 -8 46 -6 22 2 35 -1 38 -11 9 -22 32
-18 60 10 31 31 33 31 31 -1 -2 -30 13 -34 148 -37 44 -1 86 -6 94 -11 11 -7
19 -3 29 12 8 12 21 22 28 22 8 0 14 4 14 9 0 8 40 20 83 26 11 1 21 -4 24
-12 3 -7 10 -13 15 -13 15 0 37 31 38 51 0 14 7 15 47 8 38 -7 49 -6 56 6 11
21 24 19 32 -6 5 -14 13 -19 26 -16 10 3 19 1 19 -4 0 -4 7 -6 15 -3 9 4 15 0
15 -9 0 -9 -9 -19 -20 -22 -28 -9 -26 -43 2 -47 30 -4 37 -38 9 -45 -22 -6
-29 -39 -9 -45 7 -3 9 -12 5 -22 -5 -14 -14 -17 -33 -12 -30 8 -49 -1 -36 -17
6 -8 1 -20 -14 -37 -20 -20 -24 -22 -24 -7 0 11 -8 17 -24 17 -26 0 -53 -24
-37 -34 11 -7 2 -46 -11 -46 -6 0 -8 -7 -4 -15 3 -9 0 -15 -10 -15 -8 0 -17
-7 -20 -15 -4 -8 -14 -15 -24 -15 -10 0 -23 -6 -30 -14 -6 -8 -18 -12 -26 -9
-14 5 -18 -6 -15 -40 1 -9 -5 -20 -13 -23 -9 -3 -16 -12 -16 -20 0 -8 -10 -14
-22 -14 -17 0 -19 -3 -9 -9 17 -11 6 -17 -42 -26 -28 -6 -37 -4 -37 6 0 8 -11
19 -25 26 -21 9 -25 9 -25 -4 0 -8 -5 -11 -10 -8 -8 5 -7 11 1 21 9 11 9 17
-1 29 -15 19 -28 19 -82 1 -28 -9 -59 -12 -88 -7 -43 6 -44 7 -22 19 12 7 20
18 16 23 -9 15 -66 0 -84 -21 -12 -15 -21 -17 -50 -10 -30 7 -31 8 -9 9 34 1
57 26 33 35 -9 3 -23 1 -32 -6 -13 -11 -14 -10 -8 10 5 16 3 22 -7 22 -9 0
-17 -6 -20 -12 -3 -10 -7 -10 -20 1 -11 9 -17 10 -17 2 0 -7 -9 -9 -25 -5 -14
3 -25 2 -25 -3 0 -11 -57 -33 -65 -25 -3 3 8 11 25 18 16 7 30 20 30 27 0 20
-29 30 -46 16 -7 -6 -17 -8 -23 -5 -5 4 -17 -1 -25 -10 -14 -13 -16 -14 -16 0
0 8 5 18 10 21 14 8 13 26 -1 22 -6 -1 -14 4 -17 12 -3 10 0 12 12 8 9 -4 16
-2 16 3 0 14 -21 24 -29 13 -10 -16 -61 -22 -61 -7 0 7 -9 16 -21 19 -13 4
-18 12 -15 22 6 15 1 15 -41 2 -6 -2 -11 1 -11 6 0 6 4 9 10 7 5 -1 15 4 23
12 13 12 12 16 0 26 -10 8 -13 21 -9 37 6 22 4 24 -17 21 -14 -2 -25 -11 -27
-23 -6 -31 -19 -40 -37 -25 -15 12 -15 14 -1 22 20 11 21 48 1 48 -8 0 -15 -6
-15 -14 0 -24 -17 -27 -48 -9 -29 17 -31 17 -50 0 -10 -9 -24 -17 -30 -17 -21
0 -13 -17 11 -24 22 -6 22 -6 2 -22 -16 -12 -21 -12 -30 -1 -16 21 -43 27 -55
11 -13 -15 -55 -20 -46 -5 8 12 -39 30 -63 24 -16 -4 -21 -1 -21 13 0 11 -14
34 -30 53 -23 26 -35 32 -54 27 -19 -5 -25 -1 -30 17 -4 19 -13 24 -40 25 -27
1 -39 -5 -58 -28 -12 -17 -29 -30 -35 -30 -17 0 -16 10 1 24 8 6 17 27 20 46
3 19 3 29 0 22 -4 -8 -10 -10 -17 -4 -8 7 -22 -3 -42 -29 -24 -31 -37 -38 -65
-39 -33 -1 -34 -1 -16 -15 24 -18 16 -19 -18 -3 -23 10 -24 12 -9 23 18 13 10
35 -12 35 -11 0 -13 8 -8 31 4 21 1 34 -8 40 -11 7 -12 12 -1 29 10 17 9 23
-8 37 -11 10 -20 23 -20 30 0 18 25 16 40 -2 10 -12 15 -13 21 -4 4 7 27 12
53 12 l46 -1 -4 42 c-5 53 4 70 35 62 13 -3 18 -3 12 0 -9 4 -10 11 -3 25 8
14 15 16 28 10 9 -6 31 -16 49 -23z m-1623 -170 c16 -35 14 -84 -3 -101 -16
-16 -13 -37 4 -37 26 0 18 -39 -10 -46 -14 -3 -25 -13 -25 -21 0 -8 -4 -11
-10 -8 -5 3 -10 -1 -10 -9 0 -9 3 -16 8 -16 4 0 12 -11 18 -24 9 -19 8 -27 -4
-40 -12 -12 -13 -18 -3 -30 8 -10 9 -16 1 -21 -11 -7 -14 -45 -2 -45 4 0 7
-18 7 -40 0 -22 -3 -40 -7 -40 -5 0 -8 -9 -8 -21 0 -11 4 -18 9 -15 10 6 23
-19 14 -27 -8 -8 -33 4 -33 15 0 6 -7 16 -15 22 -28 21 -52 216 -36 296 26
135 40 189 56 214 23 34 31 33 49 -6z m450 -759 c34 1 54 -3 67 -15 30 -27 23
-36 -23 -32 -34 3 -46 -1 -71 -24 l-30 -27 26 -40 c31 -47 32 -54 11 -86 -9
-13 -13 -29 -10 -34 10 -15 -25 -51 -49 -51 -11 0 -35 -13 -53 -30 -35 -31
-74 -46 -92 -35 -5 3 -17 -1 -26 -9 -9 -9 -11 -16 -4 -16 6 0 8 -4 5 -10 -3
-5 -15 -10 -26 -10 -10 0 -19 5 -19 10 0 6 -6 10 -14 10 -8 0 -17 7 -20 15 -3
9 -11 15 -18 14 -19 -4 -58 11 -59 22 -1 5 -2 13 -3 18 0 5 -4 13 -8 17 -5 4
-8 21 -8 39 0 34 17 51 103 98 29 16 63 27 87 27 36 0 70 19 70 40 0 5 14 13
32 18 62 16 60 72 -3 72 -16 0 -29 4 -29 9 0 11 64 19 95 12 11 -2 42 -3 69
-2z"/>
<path d="M6750 14559 c-80 -3 -163 -10 -185 -13 -56 -11 -125 -39 -122 -51 1
-5 -15 -27 -36 -48 -20 -21 -37 -43 -37 -49 0 -17 -56 -83 -83 -97 -14 -7 -31
-24 -38 -37 -7 -13 -18 -24 -25 -24 -15 0 -64 -61 -89 -110 l-18 -35 24 20
c13 11 30 28 37 38 8 10 30 29 50 42 21 13 57 39 82 56 163 117 214 148 227
137 10 -8 13 -6 13 9 0 21 36 60 46 50 3 -3 1 -14 -5 -25 -15 -28 -14 -37 3
-23 8 7 34 13 58 14 24 2 49 6 56 11 6 4 12 2 12 -3 0 -15 53 -14 67 0 9 9 19
9 41 0 16 -7 56 -14 88 -17 33 -2 79 -9 103 -14 30 -7 47 -8 54 -1 7 7 14 5
23 -7 8 -11 29 -17 66 -19 29 -1 71 -9 93 -19 24 -10 65 -17 103 -16 34 0 62
-4 62 -9 0 -5 7 -9 15 -9 9 0 12 6 9 15 -9 22 4 19 42 -10 18 -14 37 -25 43
-25 6 0 11 -4 11 -10 0 -5 8 -10 17 -10 39 0 -90 103 -237 190 -28 16 -60 30
-70 30 -11 0 -20 4 -20 9 0 5 -21 15 -47 24 -127 40 -202 46 -433 36z"/>
<path d="M9169 9779 c-1 -8 0 -28 1 -45 1 -18 -3 -35 -9 -39 -6 -3 -11 -2 -11
3 0 5 -18 10 -40 10 -36 1 -40 -2 -35 -19 8 -23 -8 -25 -30 -3 -15 15 -16 14
-13 -12 2 -22 -2 -31 -19 -39 -13 -5 -23 -18 -23 -28 0 -10 -7 -20 -15 -23
-24 -9 -39 -44 -26 -57 13 -13 15 -57 2 -57 -5 0 -11 6 -14 13 -5 14 -57 -29
-57 -48 0 -16 33 -45 52 -45 11 0 13 8 10 30 -3 18 0 30 7 30 6 0 11 -16 11
-35 l0 -35 40 6 40 7 0 -55 c0 -30 -4 -58 -9 -63 -5 -6 -13 -30 -18 -55 -6
-31 -15 -48 -30 -55 -12 -5 -32 -27 -44 -50 -12 -22 -23 -41 -23 -42 -1 -1
-13 -4 -29 -8 -22 -6 -26 -4 -21 9 4 9 1 16 -6 16 -7 0 -19 8 -26 18 -12 15
-13 15 -14 0 0 -9 6 -19 13 -21 9 -4 9 -8 1 -14 -6 -4 -15 -19 -19 -31 -6 -21
-4 -23 13 -18 23 8 38 -21 33 -62 -1 -13 9 -38 23 -57 14 -18 26 -38 26 -43 0
-5 11 -14 25 -20 14 -6 25 -16 25 -22 0 -5 7 -10 15 -10 8 0 19 -9 25 -20 6
-11 19 -20 29 -20 21 0 83 -56 94 -84 6 -15 10 -16 22 -6 8 7 16 10 16 6 8
-41 28 -72 64 -101 61 -49 65 -55 66 -93 3 -79 46 -295 60 -300 5 -2 9 -13 9
-24 0 -17 4 -19 25 -14 27 7 35 -10 14 -31 -8 -8 1 -11 36 -11 30 0 53 -6 66
-18 17 -15 19 -15 25 -1 3 9 12 13 21 10 12 -5 14 -3 8 8 -6 11 -5 11 5 2 8
-8 12 -36 11 -84 -1 -65 0 -70 15 -59 20 18 33 0 35 -50 3 -52 6 -80 14 -132
6 -39 4 -51 -14 -76 -11 -17 -21 -37 -21 -45 0 -9 -4 -18 -9 -21 -11 -7 -56
-93 -66 -126 -4 -14 -26 -65 -50 -115 -50 -105 -61 -135 -46 -135 6 0 11 8 11
18 0 10 5 23 11 29 5 5 18 25 27 44 10 20 24 33 34 33 10 -1 14 4 11 12 -3 8
5 14 24 16 28 3 28 5 16 49 -3 11 2 15 19 14 17 -1 22 -7 20 -23 -2 -12 2 -22
7 -22 19 0 4 -68 -28 -130 -17 -33 -31 -67 -31 -77 0 -10 -7 -29 -16 -41 -8
-13 -17 -39 -19 -60 -4 -31 -3 -33 5 -14 8 20 15 23 40 17 21 -5 30 -3 31 7 0
7 4 3 9 -9 10 -23 30 -32 30 -12 0 6 9 8 20 4 16 -5 20 -2 20 15 0 20 1 20 19
3 12 -11 25 -47 34 -93 14 -68 15 -71 16 -31 1 25 -3 81 -9 125 -8 67 -22 200
-45 426 -2 19 -11 125 -21 235 l-16 200 -39 66 c-81 136 -182 388 -223 554
-65 268 -99 419 -122 550 -47 271 -55 341 -48 421 4 55 3 84 -5 88 -6 4 -11
24 -11 45 0 22 -6 44 -15 51 -12 10 -15 10 -16 -1z"/>
<path d="M9757 6730 c5 -76 3 -93 -12 -116 -10 -15 -33 -57 -53 -93 -19 -36
-43 -78 -53 -93 -11 -14 -19 -29 -19 -33 0 -4 -16 -29 -35 -55 -19 -26 -35
-50 -35 -54 0 -15 39 -4 43 12 3 10 5 6 6 -10 1 -31 4 -33 32 -17 16 8 30 6
65 -10 24 -12 44 -26 44 -31 0 -19 21 -10 31 14 7 14 22 27 34 30 13 3 30 8
37 11 9 4 19 -4 26 -20 15 -34 15 -65 0 -65 -7 0 -2 -7 10 -16 12 -8 22 -26
22 -40 0 -13 5 -24 11 -24 24 0 -15 180 -61 285 -17 38 -40 130 -55 225 -9 52
-18 102 -20 110 -2 8 -4 30 -4 48 -1 17 -5 32 -11 32 -6 0 -7 -33 -3 -90z"/>
<path d="M10313 5886 c-40 -6 -78 -17 -85 -23 -6 -7 -20 -13 -30 -13 -17 0
-40 -37 -32 -51 2 -4 -3 -9 -11 -13 -8 -3 -15 -12 -15 -19 0 -15 46 -16 107
-3 24 6 34 3 42 -11 11 -17 11 -17 22 0 10 17 11 18 24 1 11 -16 14 -14 30 19
9 20 23 37 29 37 7 0 18 16 25 35 8 24 19 35 32 35 10 0 19 5 19 10 0 12 -62
11 -157 -4z"/>
<path d="M10622 5852 c-76 -42 -130 -81 -136 -99 -10 -25 -1 -26 41 -5 21 11
63 25 93 30 30 6 76 23 103 37 35 20 51 24 61 16 18 -15 201 -51 290 -56 41
-2 105 -9 141 -16 63 -11 100 -7 59 7 -10 3 -28 9 -39 14 -58 23 -121 32 -189
27 -65 -6 -75 -4 -91 13 -25 27 -103 49 -200 55 -75 5 -84 4 -133 -23z"/>
<path d="M12669 5224 c63 -63 116 -114 117 -114 1 0 4 7 6 16 2 11 18 -1 54
-40 28 -31 49 -56 47 -56 -2 0 15 -19 37 -41 22 -23 40 -47 40 -54 0 -7 7 -18
15 -25 21 -18 20 2 -4 48 -46 89 -208 252 -324 326 -108 68 -106 56 12 -60z"/>
<path d="M7470 4342 c-25 -8 -47 -18 -50 -22 -6 -10 -73 -19 -180 -26 -63 -4
-90 -11 -105 -24 -35 -33 -110 -61 -144 -54 -35 7 -146 -4 -136 -14 3 -4 35
-5 71 -4 82 4 84 -13 2 -22 -34 -3 -69 -13 -78 -21 -18 -16 -42 -20 -54 -7 -7
6 -48 10 -120 11 -16 0 -34 -5 -40 -13 -21 -24 -90 -38 -176 -34 -51 2 -86 -1
-87 -7 -2 -6 24 -9 67 -6 63 3 70 1 70 -15 0 -31 -51 -47 -120 -39 -33 4 -63
11 -66 17 -3 5 -20 9 -38 8 -48 -3 -56 -1 -56 14 0 17 -60 12 -128 -10 -23 -8
-53 -14 -66 -14 -13 0 -26 -7 -30 -15 -3 -8 -13 -15 -22 -15 -9 0 -22 -8 -29
-17 -9 -12 -26 -17 -56 -16 -97 3 -114 2 -123 -7 -6 -6 -30 -10 -54 -10 -42 0
-44 1 -38 24 6 23 4 24 -41 23 -33 0 -58 -8 -82 -25 -29 -20 -31 -23 -11 -17
46 14 105 11 105 -5 0 -10 -19 -18 -66 -25 -36 -6 -80 -17 -97 -24 -20 -8 -44
-11 -64 -6 -56 12 -142 13 -163 2 -21 -12 -27 -14 -50 -16 -9 -1 -12 -7 -8
-17 4 -12 0 -14 -23 -8 -16 4 -39 11 -52 15 -14 6 -31 5 -42 -1 -10 -5 -38
-10 -61 -10 -53 0 -111 -20 -105 -36 9 -22 -7 -24 -39 -4 -58 36 -185 9 -185
-40 0 -28 -22 -40 -72 -40 -26 0 -48 -3 -48 -7 0 -5 -27 -9 -60 -11 -51 -2
-61 1 -70 18 -13 24 -35 27 -26 4 5 -13 2 -15 -16 -9 -13 4 -67 9 -120 10 -53
2 -102 6 -107 10 -6 3 -11 0 -12 -7 0 -7 -4 -4 -9 8 -7 19 -17 20 -114 22 -58
2 -106 -1 -106 -5 0 -5 20 -9 45 -9 60 -2 97 -12 90 -25 -4 -6 8 -7 33 -3 l40
6 -12 -43 c-6 -24 -19 -52 -28 -61 -10 -10 -18 -24 -18 -32 0 -8 -3 -23 -7
-33 -7 -17 -6 -17 21 0 19 13 36 16 57 12 23 -5 33 -2 49 17 12 14 19 18 20 9
0 -11 3 -11 15 -1 9 7 14 18 12 25 -8 20 20 46 49 44 16 -1 41 3 55 9 35 14
73 5 56 -13 -7 -7 -17 -11 -23 -8 -21 8 -25 -16 -6 -26 22 -12 62 11 62 34 0
8 9 13 20 12 11 -1 20 -7 20 -14 0 -7 11 -13 25 -13 14 0 25 -4 25 -9 0 -5
-14 -8 -32 -7 -24 1 -35 -5 -44 -22 -8 -16 -13 -19 -16 -10 -4 11 -8 11 -21
-1 -21 -17 -22 -51 -3 -51 8 0 18 -10 22 -22 5 -17 0 -28 -27 -50 -22 -19 -35
-38 -35 -56 -1 -15 -8 -58 -15 -95 -12 -64 -15 -68 -39 -65 -21 3 -25 -1 -25
-22 0 -15 6 -25 15 -26 37 -2 41 -5 38 -21 -2 -10 -12 -18 -22 -18 -11 0 -21
-6 -24 -14 -3 -10 2 -12 22 -7 14 3 26 3 26 -1 -1 -13 -24 -39 -40 -46 -13 -4
-12 -6 1 -6 23 -1 53 -49 41 -64 -5 -7 -12 -24 -15 -38 -5 -21 -2 -28 19 -39
14 -8 22 -19 19 -28 -3 -7 -5 -22 -5 -33 0 -10 -4 -19 -10 -19 -5 0 -10 9 -10
20 0 23 -28 27 -36 6 -3 -7 2 -30 10 -51 20 -47 20 -59 0 -51 -13 5 -15 1 -11
-16 3 -13 2 -32 -3 -43 -7 -17 -9 -18 -14 -4 -4 9 -6 20 -4 25 1 5 -4 19 -11
32 -12 22 -14 22 -30 8 -22 -20 -31 -12 -31 32 0 27 -3 33 -16 28 -10 -4 -15
0 -13 12 3 24 -11 52 -25 52 -8 0 -13 -21 -14 -62 -2 -106 -2 -102 -15 -89
-16 16 -37 14 -31 -4 4 -10 0 -15 -11 -15 -9 0 -23 -7 -31 -15 -23 -23 -48
-18 -85 15 -26 23 -44 30 -76 30 -24 0 -43 4 -43 9 0 14 28 33 40 26 5 -3 10
-1 10 5 0 20 -28 40 -54 40 -23 0 -26 -3 -20 -25 4 -16 2 -25 -6 -25 -6 0 -14
9 -17 20 -9 34 -21 12 -16 -28 4 -30 0 -42 -21 -65 -28 -30 -46 -28 -46 4 0
12 -7 19 -20 19 -11 0 -21 5 -21 10 -1 6 -3 15 -4 20 -1 6 -3 13 -4 18 -1 4
-6 0 -11 -8 -8 -12 -12 -11 -32 7 -13 11 -33 24 -45 27 -12 4 -25 15 -28 26
-6 20 -58 42 -80 34 -7 -3 -22 -1 -33 5 -15 8 -21 8 -24 0 -2 -6 -15 -2 -30
10 -14 12 -31 21 -37 21 -6 0 -16 12 -21 26 -9 23 -15 26 -45 22 -28 -3 -34
-1 -30 11 3 8 0 18 -7 23 -9 6 -7 8 7 4 11 -3 25 -2 32 2 18 12 4 50 -20 54
-20 3 -20 4 -3 21 27 27 14 64 -26 72 -18 4 -41 9 -51 12 -16 4 -18 1 -12 -16
6 -20 -2 -26 -27 -22 -19 3 -6 -17 15 -23 20 -6 20 -7 5 -16 -10 -6 -15 -17
-11 -26 3 -9 0 -20 -8 -25 -12 -8 -11 -12 4 -23 23 -18 22 -36 -3 -36 -11 0
-20 -7 -20 -15 0 -8 -10 -20 -22 -26 -13 -7 -18 -14 -12 -16 7 -2 10 -13 7
-24 -4 -15 -8 -17 -19 -8 -13 10 -39 8 -78 -7 -21 -8 -21 19 -1 36 19 16 19
40 0 40 -8 0 -15 -7 -15 -15 0 -8 -4 -15 -9 -15 -16 0 -23 20 -12 34 6 7 8 16
4 19 -12 12 -33 7 -63 -14 -17 -13 -35 -19 -46 -15 -9 3 -23 1 -30 -5 -11 -9
-19 -8 -32 5 -10 9 -31 16 -45 16 -16 0 -27 6 -27 14 0 7 -7 19 -15 26 -12 10
-15 9 -15 -5 0 -11 -12 -2 -36 27 -20 23 -41 46 -47 50 -6 4 -8 11 -3 15 4 4
13 0 20 -10 7 -9 25 -17 40 -17 18 0 26 -5 26 -17 0 -13 3 -14 12 -5 9 9 6 16
-10 30 -28 24 -29 46 -2 37 16 -5 22 0 31 22 5 15 15 31 21 34 18 11 -29 30
-58 23 l-27 -7 23 -17 c12 -9 20 -23 17 -31 -4 -10 -6 -9 -6 4 -1 14 -7 16
-41 11 -36 -6 -40 -4 -50 21 -6 14 -8 30 -5 35 3 5 1 11 -5 15 -16 10 -28 -36
-19 -70 13 -43 12 -47 -13 -43 -14 2 -24 12 -28 28 l-6 25 -13 -23 c-10 -18
-18 -22 -34 -17 -33 10 -70 7 -79 -8 -13 -20 -9 -27 12 -27 11 0 20 -6 20 -14
0 -8 10 -22 21 -30 20 -13 20 -16 6 -30 -8 -9 -22 -13 -31 -10 -9 3 -23 -1
-32 -11 -15 -15 -18 -15 -35 1 -10 9 -36 18 -56 20 -122 12 -147 13 -164 3
-13 -6 -19 -6 -19 1 0 5 -7 10 -15 10 -8 0 -15 -4 -15 -10 0 -5 -11 -10 -25
-10 -14 0 -25 5 -25 10 0 6 -7 10 -15 10 -8 0 -15 -8 -15 -19 0 -10 -9 -21
-20 -24 -14 -4 -20 0 -20 12 0 25 48 74 65 67 17 -6 35 22 35 53 0 17 6 21 30
21 24 0 30 4 30 21 0 18 4 20 25 15 18 -5 25 -2 25 9 0 10 -10 15 -30 15 -20
0 -30 5 -30 15 0 25 -20 17 -59 -24 -26 -27 -51 -42 -76 -47 -21 -4 -58 -20
-82 -37 -24 -16 -47 -27 -50 -23 -3 3 -17 -4 -31 -14 -13 -11 -32 -20 -41 -20
-20 -1 -51 -24 -51 -38 0 -5 -8 -8 -19 -5 -24 6 -36 -13 -21 -32 10 -12 10
-18 0 -30 -20 -24 -40 -18 -40 13 l0 27 -23 -27 c-28 -33 -78 -45 -100 -24
-24 24 -37 19 -37 -13 0 -16 -6 -31 -15 -35 -8 -3 -15 -17 -15 -31 0 -15 -4
-24 -10 -20 -6 4 -8 11 -4 16 3 5 0 16 -6 24 -14 17 -60 20 -60 5 0 -21 -20
-9 -26 15 -8 33 -31 32 -52 -4 -10 -18 -28 -32 -45 -35 -21 -4 -27 -10 -23
-21 3 -8 1 -15 -4 -15 -6 0 -10 7 -10 15 0 10 -11 15 -35 15 -25 0 -35 -4 -35
-15 0 -20 -51 -40 -60 -24 -6 8 -13 8 -29 0 -14 -8 -21 -8 -21 -1 0 5 -7 10
-16 10 -10 0 -14 -6 -10 -15 6 -17 -9 -21 -19 -5 -11 17 -37 11 -42 -10 -3
-11 -11 -20 -19 -20 -8 0 -11 6 -8 14 3 8 1 23 -4 33 -10 16 -12 15 -22 -12
-6 -16 -9 -37 -7 -47 3 -10 1 -21 -4 -24 -5 -3 -9 0 -9 5 0 19 -2 26 -11 44
-13 23 -29 22 -29 -3 0 -11 -7 -20 -15 -20 -8 0 -15 7 -15 16 0 8 -5 12 -10 9
-6 -4 -8 -10 -5 -15 9 -15 -15 -22 -30 -10 -12 10 -23 6 -55 -20 -22 -17 -40
-37 -40 -43 0 -5 -3 -7 -7 -4 -3 4 -13 -2 -21 -14 -13 -19 -15 -19 -33 -3 -18
16 -19 16 -19 -10 0 -21 -25 -52 -115 -142 -151 -152 -175 -198 -175 -334 0
-90 16 -162 39 -180 3 -3 13 -18 21 -35 9 -16 27 -35 40 -41 69 -33 108 -46
152 -51 41 -5 58 -1 113 26 36 18 65 36 65 41 0 7 45 33 215 123 17 9 77 31
135 51 58 19 152 54 210 76 58 23 170 66 250 97 80 30 153 59 162 64 10 5 20
9 23 9 7 0 6 -35 -1 -54 -11 -27 -213 -115 -429 -186 -341 -111 -413 -154
-492 -290 -23 -39 -26 -57 -27 -135 -1 -79 3 -98 27 -150 35 -74 82 -124 167
-174 108 -65 191 -69 363 -18 117 35 136 34 98 -7 -10 -12 -31 -43 -46 -71
-15 -27 -36 -62 -46 -77 -25 -34 -49 -103 -49 -138 0 -135 165 -378 272 -402
54 -12 137 2 246 43 56 22 108 39 116 39 9 0 16 -19 21 -57 4 -31 20 -99 36
-151 16 -52 29 -99 29 -105 0 -28 69 -112 124 -152 159 -113 331 -86 756 122
263 128 335 158 470 194 151 40 154 41 280 104 63 31 167 77 230 101 264 104
364 150 512 239 107 63 206 134 288 205 111 95 167 140 176 140 5 0 20 -17 34
-37 14 -20 38 -44 55 -55 31 -19 98 -23 145 -8 l25 7 -27 11 c-34 14 -36 20
-5 19 31 -1 144 12 163 20 9 3 20 0 25 -8 6 -10 9 -10 9 -1 0 6 5 12 11 12 6
0 9 -7 5 -15 -6 -17 29 -22 39 -5 3 6 -1 10 -10 10 -9 0 -13 5 -10 10 3 6 19
10 35 10 22 0 28 -4 24 -15 -4 -10 0 -15 11 -15 11 0 15 6 10 19 -5 16 2 19
62 24 46 3 70 1 75 -6 6 -9 8 -8 8 2 0 10 8 12 30 8 16 -4 32 -2 35 3 10 16
66 39 81 33 14 -5 53 32 54 53 0 5 11 32 23 59 18 35 25 44 30 32 7 -19 16
-21 37 -7 13 9 13 11 0 21 -12 8 -10 9 7 4 12 -3 31 -1 43 5 13 7 20 7 20 0 0
-5 7 -10 16 -10 8 0 12 -4 9 -10 -3 -5 1 -10 10 -10 9 0 13 5 10 10 -3 6 -2
10 3 10 5 0 12 9 15 20 3 13 10 18 21 14 10 -4 18 0 22 10 3 9 17 16 30 16 15
0 24 6 24 15 0 8 8 15 18 14 22 -1 62 -17 44 -18 -7 -1 -11 -5 -7 -10 3 -6 43
-8 91 -5 76 3 85 2 74 -11 -10 -12 -7 -20 18 -46 17 -17 35 -28 40 -25 15 9
42 -4 42 -20 0 -8 10 -14 23 -14 17 0 19 2 7 10 -11 7 -9 11 13 19 15 6 27 14
27 18 0 5 18 8 40 8 26 1 47 8 63 23 13 12 29 22 36 22 7 0 26 9 42 21 17 12
39 19 49 16 11 -3 20 -1 20 4 0 5 11 9 23 9 27 0 57 28 57 53 0 8 19 31 41 51
38 32 40 36 25 51 -20 20 -21 35 -3 35 8 0 22 9 32 20 l18 20 26 -24 c19 -18
39 -26 71 -27 25 -1 56 -6 69 -11 19 -7 22 -13 16 -36 -4 -15 -8 -37 -10 -49
-1 -13 -7 -29 -14 -36 -6 -8 -11 -25 -11 -38 1 -25 -15 -116 -25 -149 -8 -25
11 -26 38 -3 19 17 20 17 14 -5 -4 -19 -2 -22 11 -17 9 4 31 8 47 9 21 1 33 8
40 24 8 19 17 22 62 22 40 0 53 4 53 15 0 23 17 18 24 -7 6 -22 7 -22 20 -5
12 16 14 16 20 1 10 -25 7 -34 -8 -28 -22 8 -26 -42 -5 -62 16 -15 17 -14 12
5 -4 18 -1 21 24 21 16 0 35 -6 42 -12 11 -11 13 -5 8 32 -3 25 -3 38 -1 29 3
-10 20 -19 45 -23 27 -4 39 -11 37 -21 -2 -7 6 -21 17 -29 18 -14 18 -15 3
-16 -10 0 -18 -5 -18 -11 0 -7 16 -10 44 -8 52 5 81 -15 53 -36 -21 -15 -22
-25 -2 -25 8 0 15 -7 15 -15 0 -8 -7 -15 -15 -15 -8 0 -15 -6 -15 -13 0 -9 11
-12 35 -9 30 4 35 1 35 -16 0 -25 23 -44 42 -37 9 4 18 -1 21 -9 4 -9 13 -16
21 -16 11 0 12 8 5 38 l-8 37 18 -24 c20 -26 51 -24 51 4 0 21 20 19 21 -2 0
-14 2 -15 6 -3 3 8 12 19 20 23 7 5 11 12 8 18 -4 5 5 9 20 9 16 0 39 13 61
35 39 39 49 44 40 18 -5 -15 -4 -15 9 1 8 11 15 27 15 37 0 18 53 34 59 17 2
-5 13 -1 25 10 21 19 74 37 154 51 24 5 48 13 54 19 17 17 25 15 31 -9 4 -15
11 -20 21 -16 11 5 16 0 16 -13 0 -11 4 -20 10 -20 19 0 21 -47 5 -86 -9 -21
-19 -55 -21 -74 -3 -19 -11 -45 -19 -57 -8 -12 -15 -31 -15 -43 0 -11 -4 -20
-9 -20 -17 0 -22 -34 -6 -42 20 -12 10 -27 -14 -21 -14 3 -20 -2 -23 -20 -4
-18 -1 -24 9 -20 20 8 16 -7 -7 -27 -17 -15 -18 -19 -5 -23 8 -4 14 -3 13 1
-1 4 10 26 26 49 16 24 26 49 22 58 -3 9 -2 13 4 10 5 -3 14 5 21 17 7 13 15
25 18 28 4 3 22 34 40 70 19 36 38 66 43 68 4 2 8 10 8 18 0 8 4 14 8 14 4 0
8 10 9 22 1 11 6 24 12 27 10 6 58 98 61 116 1 6 7 17 15 25 7 8 16 26 20 40
4 13 14 30 21 38 8 7 12 17 9 22 -3 5 0 10 5 12 6 2 12 10 13 18 1 8 14 36 29
63 15 26 30 56 33 67 8 24 18 25 35 5 7 -8 19 -15 26 -15 8 0 14 -5 14 -12 0
-6 3 -8 7 -5 3 4 12 2 20 -4 7 -6 13 -8 13 -3 1 5 7 -2 15 -16 7 -14 17 -25
22 -25 21 -2 53 -17 53 -26 0 -6 5 -7 10 -4 6 3 10 -1 10 -10 0 -9 5 -13 10
-10 6 4 8 11 5 16 -10 15 2 10 16 -8 12 -14 12 -16 0 -9 -9 6 -12 4 -9 -5 3
-8 11 -14 19 -14 8 0 25 -11 38 -25 13 -14 18 -17 11 -7 -7 9 -8 17 -3 17 5 0
9 9 10 20 1 13 -4 20 -15 20 -9 0 -28 6 -42 14 -14 8 -49 26 -77 41 -29 14
-53 31 -53 36 0 5 -9 9 -20 9 -11 0 -20 4 -20 8 0 4 -14 16 -32 27 -18 10 -42
28 -53 40 -11 12 -33 30 -48 40 -16 10 -57 59 -92 109 -35 50 -68 96 -74 102
-23 28 -103 199 -111 242 -5 26 -30 133 -55 237 -25 105 -52 217 -59 250 -24
104 -87 347 -111 430 -132 440 -205 645 -311 861 -62 129 -70 134 -189 140
-44 3 -98 6 -120 8 -22 1 -60 -4 -85 -12z m-2650 -516 c0 -8 -4 -18 -10 -21
-15 -9 -12 -25 5 -25 8 0 23 9 32 20 13 15 30 20 69 20 31 0 54 5 56 12 6 17
28 0 28 -21 0 -21 -35 -31 -107 -31 -37 0 -44 -3 -41 -17 2 -12 12 -17 28 -16
14 1 52 3 85 5 57 4 126 27 82 28 -10 0 -17 6 -15 13 3 7 27 13 57 15 44 3 56
0 67 -17 13 -18 22 -20 77 -14 56 5 64 3 89 -20 14 -13 39 -28 54 -31 31 -8
53 -32 54 -58 0 -12 -10 -18 -32 -20 -47 -4 -44 -32 4 -36 38 -3 55 -26 60
-82 3 -22 -1 -25 -29 -28 -50 -5 -37 -37 15 -37 19 0 27 -9 38 -40 21 -62 19
-75 -16 -75 -20 0 -30 -5 -30 -15 0 -10 10 -15 33 -15 30 0 34 -4 46 -44 17
-59 12 -81 -19 -81 -14 0 -26 -3 -27 -7 -8 -22 0 -29 29 -26 30 3 32 0 49 -47
19 -56 12 -75 -26 -67 -14 2 -25 0 -25 -6 0 -6 17 -12 38 -14 35 -3 37 -5 40
-38 1 -19 -1 -40 -5 -46 -8 -10 -273 -53 -468 -75 -55 -7 -103 -15 -107 -18
-8 -6 16 -158 26 -168 3 -3 8 2 12 11 17 43 121 91 253 116 65 12 191 -1 274
-28 l57 -19 0 21 c0 11 -5 56 -12 99 -14 91 -6 107 38 86 31 -16 42 -48 69
-201 11 -66 21 -98 30 -98 37 0 175 -200 175 -253 0 -9 7 -44 16 -79 13 -48
15 -89 11 -168 -8 -140 -29 -210 -65 -210 -12 0 -12 4 4 21 10 12 14 23 9 27
-13 9 -17 32 -6 32 16 0 22 137 11 222 -14 101 -40 164 -102 246 -27 35 -48
67 -48 72 0 5 -10 15 -22 21 -13 7 -36 23 -52 36 -16 13 -35 22 -43 19 -8 -3
-32 3 -54 15 -61 31 -196 46 -272 30 -263 -54 -474 -286 -493 -543 -7 -106
-10 -114 -29 -98 -14 11 -14 10 -7 -11 5 -13 6 -35 2 -49 -13 -50 -31 42 -31
161 0 158 37 285 106 367 14 16 25 35 25 41 0 17 28 13 39 -6 11 -19 9 13 -9
190 -5 48 -7 94 -4 101 3 8 18 20 34 26 22 9 30 20 32 43 2 26 9 32 37 40 25
6 31 11 23 19 -8 8 -19 8 -38 -1 -35 -16 -41 -8 -49 62 -8 59 -4 63 45 59 3 0
7 8 7 19 2 21 -18 25 -48 9 -16 -9 -21 -7 -28 12 -5 13 -10 44 -12 68 -4 44
-4 45 29 48 25 3 32 8 30 20 -3 13 -12 16 -40 14 -41 -4 -44 2 -50 78 -3 33
-1 35 30 38 33 3 37 9 26 36 -5 12 -15 15 -45 10 -37 -6 -39 -5 -39 18 0 14
-3 39 -6 56 -6 29 -4 31 27 34 23 2 35 9 37 21 3 16 -2 18 -39 15 -43 -3 -43
-3 -51 37 -4 22 -12 56 -17 75 -6 19 -13 48 -16 63 -4 20 -10 27 -20 23 -18
-6 -19 -1 -5 25 13 22 60 26 60 5z m-1921 -1111 c10 -3 30 -1 45 5 18 6 34 6
50 -1 l24 -11 -19 -34 -19 -34 40 0 c46 0 59 17 42 56 -14 30 1 32 22 3 16
-23 11 -47 -13 -67 -14 -11 -14 -14 7 -28 22 -16 31 -54 12 -54 -5 0 -10 7
-10 15 0 11 -12 15 -49 15 -27 0 -64 3 -82 7 -31 6 -33 5 -20 -10 21 -26 -1
-20 -32 9 -23 21 -28 23 -33 9 -4 -9 -2 -21 5 -28 17 -17 13 -37 -8 -37 -24 0
-37 -17 -46 -59 -10 -46 -42 -72 -78 -65 -15 3 -34 1 -41 -5 -7 -6 -37 -9 -67
-7 -43 2 -54 6 -53 20 1 9 -3 16 -10 15 -6 -1 -22 -1 -36 0 -25 2 -25 2 -2 11
12 5 22 13 22 17 -1 25 -14 53 -26 53 -22 0 -5 28 31 50 20 13 40 18 51 13 17
-6 18 -5 4 12 -14 17 -13 17 8 11 30 -10 62 17 55 45 -4 12 0 19 10 19 8 0 17
7 21 15 3 8 9 14 14 13 10 -4 82 34 82 43 0 4 9 5 20 2 11 -3 27 2 37 13 17
17 18 17 21 -4 2 -11 11 -24 21 -27z m2650 -66 c67 -23 150 -80 188 -128 38
-48 73 -109 73 -127 0 -8 4 -14 8 -14 13 0 31 -60 42 -144 14 -97 -6 -208 -53
-305 -37 -75 -218 -267 -277 -294 -108 -49 -286 -41 -408 18 -26 13 -48 19
-50 14 -5 -13 -42 10 -42 26 0 8 -15 18 -32 23 -24 6 -34 15 -36 33 -2 13 -10
31 -16 39 -20 23 -64 110 -80 156 -62 179 -5 401 142 552 76 78 121 109 207
142 112 42 228 45 334 9z m-3586 -322 c28 0 36 -11 16 -22 -6 -4 -8 -13 -5
-21 3 -8 -1 -14 -9 -14 -22 0 -88 -68 -89 -92 -1 -18 -7 -22 -36 -22 -31 -1
-35 -4 -38 -28 -2 -16 -8 -28 -13 -28 -5 0 -8 12 -7 27 3 25 -1 28 -36 34 -52
9 -96 -13 -96 -48 0 -17 -4 -23 -14 -20 -19 8 -36 -12 -36 -44 0 -15 -6 -32
-14 -38 -11 -9 -15 -6 -20 14 -4 14 -14 25 -22 25 -11 0 -14 5 -10 16 10 26
-4 35 -27 19 -12 -8 -32 -15 -44 -15 -13 0 -23 -4 -23 -9 0 -5 -12 -12 -27
-16 -29 -8 -167 -15 -145 -8 8 3 5 10 -9 22 -18 14 -20 21 -11 38 13 23 63 37
74 20 8 -13 23 -2 23 16 0 7 13 11 32 10 20 -2 33 2 37 12 3 8 10 15 15 15 6
0 7 -8 4 -17 -5 -12 -1 -11 15 5 12 12 28 22 36 22 7 0 25 9 40 21 14 11 30
18 35 15 13 -8 42 4 35 15 -3 5 2 6 10 3 9 -3 16 -1 16 4 0 6 17 14 38 18 20
4 44 12 52 19 8 7 38 18 66 24 28 7 68 18 90 26 21 8 46 11 54 8 8 -4 27 -6
43 -6z m3687 -812 c0 -8 -3 -15 -7 -15 -5 -1 -66 -9 -138 -20 -225 -33 -413
-53 -432 -45 -34 14 36 33 152 40 60 4 164 17 230 30 148 28 195 31 195 10z"/>
<path d="M5250 2198 c0 -5 4 -8 9 -8 25 0 79 -75 95 -131 16 -60 76 -142 92
-126 4 4 -7 49 -25 100 -18 50 -35 107 -38 125 -3 18 -10 36 -17 40 -15 9
-116 9 -116 0z"/>
<path d="M2010 3473 c-8 -3 -33 -13 -55 -23 -22 -9 -56 -21 -75 -25 -19 -4
-53 -15 -75 -25 -79 -34 -148 -60 -163 -60 -30 0 -158 -85 -231 -153 -80 -75
-83 -84 -16 -50 78 40 156 71 195 78 33 6 49 21 60 55 9 27 19 40 31 40 10 0
20 4 23 8 8 13 130 72 206 100 110 40 129 48 136 55 8 8 -13 8 -36 0z"/>
<path d="M12070 3193 c-36 -8 -99 -21 -140 -29 -41 -8 -95 -20 -120 -26 -25
-6 -63 -15 -85 -20 -22 -5 -67 -13 -100 -18 -62 -9 -127 -26 -204 -53 -32 -12
-50 -13 -64 -6 -10 6 -22 7 -25 3 -4 -4 -1 -9 6 -11 24 -9 11 -23 -21 -23 -21
0 -44 -9 -62 -24 -15 -13 -33 -22 -39 -20 -13 4 -52 -23 -45 -31 3 -3 42 9 87
25 45 16 82 27 82 24 0 -4 7 -1 15 6 8 7 15 9 15 4 0 -5 4 -4 8 2 6 9 119 42
160 46 6 1 12 5 12 10 0 5 4 7 9 3 5 -3 12 -1 15 4 6 9 129 35 159 33 9 0 17
3 17 8 0 4 8 7 18 5 9 -1 22 2 29 7 6 5 36 12 65 15 29 3 67 11 83 18 17 6 38
11 48 9 9 -1 17 2 17 7 0 6 3 8 8 6 4 -3 41 2 82 10 41 9 93 19 115 23 37 7
35 8 -20 7 -33 0 -89 -6 -125 -14z"/>
<path d="M9435 1505 c4 -11 8 -26 8 -32 0 -7 6 -13 13 -13 17 0 11 -49 -7 -61
-11 -7 -10 -9 4 -9 12 0 16 -4 11 -12 -5 -9 -2 -8 9 1 15 12 17 12 11 -3 -3
-9 -2 -16 3 -16 13 0 58 -40 47 -41 -5 -1 2 -4 16 -8 14 -4 30 -17 36 -30 16
-31 34 -49 34 -33 0 7 7 12 15 12 10 0 15 -10 15 -30 0 -20 4 -28 13 -24 8 3
31 -11 53 -30 21 -20 47 -36 56 -36 15 0 16 3 4 30 -11 28 -108 110 -129 110
-6 0 -38 29 -73 65 -35 36 -68 65 -73 65 -9 0 -27 57 -23 73 1 4 -6 10 -15 14
-10 4 -22 11 -26 17 -5 6 -6 2 -2 -9z"/>
</g>
</svg>
